<svg xmlns="http://www.w3.org/2000/svg" viewBox="0 0 379.4 64" enable-background="new 0 0 379.4 64"><g fill="#414042"><path d="M82.8 44.3v-1.7c2 .7 4 1 6 1 3.9 0 5.8-1.2 5.8-3.7 0-2-1.4-3-4.3-3H88c-3.8 0-5.8-1.6-5.8-4.9 0-3.5 2.5-5.2 7.6-5.2 2 0 4 .3 6 .9v1.7c-2-.7-4-1-6-1-3.8 0-5.8 1.2-5.8 3.6 0 2.1 1.3 3.1 3.9 3.1h2.3c4.1 0 6.1 1.6 6.1 4.7 0 3.5-2.5 5.2-7.6 5.2-1.9.1-3.9-.1-5.9-.7zM100.3 36c0-6.2 2.9-9.4 8.6-9.4 5.7 0 8.6 3.1 8.6 9.4 0 6.2-2.9 9.3-8.6 9.3-5.7 0-8.6-3.1-8.6-9.3zm8.5 7.7c4.5 0 6.7-2.6 6.7-7.9 0-5.1-2.2-7.7-6.7-7.7s-6.7 2.6-6.7 7.7c0 5.3 2.3 7.9 6.7 7.9zM122.1 45.1V25.9c0-4.4 2.5-6.7 7.4-6.7 1.5 0 2.9.2 4.1.7v1.6c-1.2-.5-2.5-.7-4.1-.7-3.7 0-5.5 1.7-5.5 5.1v.9h6.9v1.6H124v16.8h-1.9zM133.2 23.8h1.3l.3 3h5.5v1.6H135V40c0 2.4.9 3.6 2.7 3.6h2.7v1.6h-2.7c-3 0-4.5-1.6-4.5-4.9V23.8zM142.5 26.8h1.9l4 16.1 5.8-16.1h1.3l6 15.8 4-15.8h1.8l-4.8 18.4h-1.9l-5.8-15.7-5.7 15.7h-2l-4.6-18.4zM170.1 39.9c0-3.6 2.4-5.5 7.3-5.5 1.7 0 3.5.1 5.5.3v-2.3c0-2.8-1.8-4.2-5.3-4.2-2 0-4 .3-6 .9v-1.6c2-.6 4-.9 6-.9 4.8 0 7.1 1.9 7.1 5.7V45h-1.1l-.4-1.8c-2.3 1.2-4.5 1.8-6.7 1.8-4.3.1-6.4-1.6-6.4-5.1zm7.3-3.9c-3.6 0-5.4 1.3-5.4 3.8 0 2.4 1.5 3.7 4.5 3.7 2.2 0 4.4-.6 6.4-1.8v-5.4c-2-.1-3.8-.3-5.5-.3zM190.3 45.1V26.8h1.3l.2 3c1.8-2 3.9-3 6.2-3v1.5c-2.2 0-4.1 1.1-5.9 3.2v13.7h-1.8zM208.8 26.8c5 0 7.5 2.8 7.5 8.3v1.2h-13.9c0 4.8 2.5 7.2 7.6 7.2 2.1 0 3.9-.3 5.6-.9v1.6c-1.6.6-3.5.9-5.6.9-6.3 0-9.5-3.1-9.5-9.4 0-5.9 2.8-8.9 8.3-8.9zm-6.4 7.9h12.2c-.1-4.3-2-6.4-5.8-6.4-4.1 0-6.2 2.1-6.4 6.4zM234.7 44.6c-1.5.3-3.2.5-4.9.5-6.5 0-9.8-3.2-9.8-9.5 0-5.9 3.3-8.8 9.8-8.8 1.8 0 3.4.2 4.9.5v2.6c-1.5-.4-3.2-.5-5.1-.5-4.3 0-6.4 2.1-6.4 6.2 0 4.6 2.1 6.9 6.4 6.9 1.9 0 3.6-.2 5.1-.5v2.6zM238.8 45.1V26.8h2.2l.6 2.3c1.6-1.6 3.5-2.3 5.8-2.3v2.7c-2.2 0-4 .8-5.3 2.3v13.3h-3.3zM249.8 39.6c0-3.8 2.5-5.6 7.4-5.6 1.6 0 3.2.1 4.8.3v-1.7c0-2.1-1.6-3.2-4.9-3.2-1.9 0-3.8.3-5.8.9v-2.6c2-.6 3.9-.9 5.8-.9 5.5 0 8.2 1.9 8.2 5.7v12.7h-1.8l-1.1-1.8c-1.8 1.2-3.8 1.8-6 1.8-4.5-.1-6.6-1.9-6.6-5.6zm7.4-3c-2.8 0-4.2 1-4.2 3s1.1 3 3.3 3c2.2 0 4.1-.6 5.7-1.8V37c-1.6-.3-3.2-.4-4.8-.4zM270.5 45.1V25.9c0-4.4 2.5-6.7 7.6-6.7 1.4 0 2.7.2 3.9.7v2.6c-1.2-.5-2.5-.7-3.9-.7-2.9 0-4.3 1.3-4.3 3.9v1h5.7v2.6h-5.7V45h-3.3zM282 23.8h2l.7 3h5v2.6h-4.5v10.5c0 1.7.7 2.6 2.2 2.6h2.2v2.6h-3.1c-3.1 0-4.6-1.6-4.6-4.9V23.8zM293.7 44.3v-2.8c2.2.7 4.3 1.1 6.5 1.1 2.9 0 4.4-.9 4.4-2.6 0-1.6-1-2.4-3.1-2.4h-2.6c-4 0-5.9-1.8-5.9-5.4 0-3.5 2.5-5.2 7.6-5.2 2.2 0 4.4.3 6.5.9v2.8c-2.2-.7-4.3-1.1-6.5-1.1-3.1 0-4.6.9-4.6 2.6 0 1.6 1 2.4 2.9 2.4h2.6c4.2 0 6.3 1.8 6.3 5.4 0 3.5-2.5 5.2-7.6 5.2-2.2-.1-4.4-.3-6.5-.9zM312.2 45.1V26.8h2.2l.5 2.3c1.8-1.5 3.7-2.3 5.8-2.3 2.7 0 4.5.8 5.4 2.5 2-1.7 4-2.5 6.1-2.5 4.2 0 6.3 2.3 6.3 7v11.4h-3.2V33.6c0-2.7-1.2-4.1-3.5-4.1-1.7 0-3.3.8-4.8 2.4v13.3h-3.2V33.6c0-2.8-1.1-4.2-3.4-4.2-1.8 0-3.4.8-4.9 2.4v13.3h-3.3zM351.4 26.8c5.2 0 7.8 2.6 7.8 7.7 0 .7-.1 1.5-.2 2.4h-12.9c0 3.8 2.2 5.6 6.6 5.6 2.1 0 3.9-.2 5.6-.7v2.6c-1.6.5-3.6.7-5.9.7-6.3 0-9.5-3.1-9.5-9.4 0-5.9 2.8-8.9 8.5-8.9zm-5.2 7.4h9.9c-.1-3.2-1.6-4.8-4.7-4.8-3.3 0-5 1.6-5.2 4.8zM363.6 45.1V26.8h2.2l.6 2.3c1.9-1.6 3.9-2.3 6.2-2.3 4.6 0 6.9 2.3 6.9 6.8v11.5h-3.2V33.6c0-2.7-1.4-4.1-4.1-4.1-1.9 0-3.6.8-5.3 2.3v13.3h-3.3z"/></g><linearGradient id="a" gradientUnits="userSpaceOnUse" x1="18.301" y1="18.437" x2="51.964" y2="5.515"><stop offset="0" stop-color="#1D4486"/><stop offset=".132" stop-color="#1D498A"/><stop offset=".35" stop-color="#1D5795"/><stop offset=".627" stop-color="#206CA8"/><stop offset=".95" stop-color="#218DCA"/><stop offset="1" stop-color="#2093D1"/></linearGradient><path fill="url(#a)" d="M42.3 24L56 16.1 28-.1l-13.8 8z"/><linearGradient id="b" gradientUnits="userSpaceOnUse" x1="5.743" y1="8.47" x2="36.512" y2="31.656"><stop offset="0" stop-color="#1D4486"/><stop offset=".132" stop-color="#1D498A"/><stop offset=".35" stop-color="#1D5795"/><stop offset=".627" stop-color="#206CA8"/><stop offset=".95" stop-color="#218DCA"/><stop offset="1" stop-color="#2093D1"/></linearGradient><path fill="url(#b)" d="M0 16.1l28 16.2L42.3 24 14.2 7.9z"/><linearGradient id="c" gradientUnits="userSpaceOnUse" x1="42.258" y1="23.797" x2="56.162" y2="24.04"><stop offset="0" stop-color="#1D4486"/><stop offset=".132" stop-color="#1D498A"/><stop offset=".35" stop-color="#1D5795"/><stop offset=".627" stop-color="#206CA8"/><stop offset=".95" stop-color="#218DCA"/><stop offset="1" stop-color="#2093D1"/></linearGradient><path fill="url(#c)" d="M42.3 24L56 16.1V32z"/><linearGradient id="d" gradientUnits="userSpaceOnUse" x1="19.538" y1="63.564" x2="22.245" y2="41.523"><stop offset="0" stop-color="#1D4486"/><stop offset=".152" stop-color="#1D4788"/><stop offset=".324" stop-color="#1C4E8E"/><stop offset=".505" stop-color="#1D5A98"/><stop offset=".693" stop-color="#206AA7"/><stop offset=".883" stop-color="#2281BD"/><stop offset="1" stop-color="#2093D1"/></linearGradient><path fill="url(#d)" d="M13.8 40.5L0 48.4l28 16.2 13.8-7.9z"/><linearGradient id="e" gradientUnits="userSpaceOnUse" x1="38.896" y1="57.537" x2="30.898" y2="31.376"><stop offset="0" stop-color="#1D4486"/><stop offset=".132" stop-color="#1D498A"/><stop offset=".35" stop-color="#1D5795"/><stop offset=".627" stop-color="#206CA8"/><stop offset=".95" stop-color="#218DCA"/><stop offset="1" stop-color="#2093D1"/></linearGradient><path fill="url(#e)" d="M56 48.4L28 32.3l-14.2 8.2 28 16.2z"/><linearGradient id="f" gradientUnits="userSpaceOnUse" x1="9.913" y1="46.423" x2="-3.403" y2="37.775"><stop offset="0" stop-color="#1D4486"/><stop offset=".132" stop-color="#1D498A"/><stop offset=".35" stop-color="#1D5795"/><stop offset=".627" stop-color="#206CA8"/><stop offset=".95" stop-color="#218DCA"/><stop offset="1" stop-color="#2093D1"/></linearGradient><path fill="url(#f)" d="M13.8 40.5L0 48.4V32.5z"/></svg>